<svg width="97" height="97" viewBox="0 0 97 97" fill="none" xmlns="http://www.w3.org/2000/svg">
<path d="M48.1276 1.74316C38.9532 1.74218 29.9846 4.46187 22.356 9.55828C14.7274 14.6547 8.78139 21.8989 5.27005 30.3747C1.75871 38.8506 0.83973 48.1773 2.62932 57.1755C4.41892 66.1736 8.8367 74.439 15.324 80.9263C21.8112 87.4135 30.0766 91.8313 39.0747 93.6209C48.0729 95.4105 57.3997 94.4915 65.8755 90.9802C74.3513 87.4689 81.5955 81.5229 86.6919 73.8943C91.7883 66.2656 94.508 57.297 94.507 48.1226C94.5057 35.8224 89.6189 24.0264 80.9214 15.3288C72.2238 6.63129 60.4278 1.74448 48.1276 1.74316V1.74316ZM75.2904 63.0788C72.4642 68.2018 68.2506 72.424 63.1333 75.2607L66.0364 82.761C60.4322 85.6547 54.2102 87.1469 47.9033 87.1098C41.5963 87.0727 35.3923 85.5074 29.8226 82.548L32.9535 75.1715C27.9307 72.3423 23.7897 68.1772 20.9896 63.1382L13.4991 66.0512C10.6162 60.4739 9.12076 54.2836 9.13973 48.0052C9.1587 41.7269 10.6915 35.5458 13.6081 29.986L21.0391 33.0277C23.8587 27.9786 28.0312 23.8164 33.0873 21.0093L35.1679 26.3993C39.0869 24.065 43.5637 22.8327 48.1251 22.8327C52.6866 22.8327 57.1634 24.065 61.0824 26.3993L63.163 21.0093C68.2211 23.816 72.394 27.9805 75.2112 33.0327L82.6422 29.981C85.5476 35.5209 87.0799 41.6776 87.11 47.933C87.1402 54.1885 85.6674 60.3597 82.8156 65.9273L75.2904 63.0788Z" stroke="#1C5368" stroke-width="3" stroke-linecap="round" stroke-linejoin="round"/>
<path d="M75.2898 63.0787C72.4635 68.2017 68.2499 72.4239 63.1327 75.2606L60.8835 69.9499C57.0492 72.3116 52.6144 73.5157 48.1121 73.4177C43.1829 73.4177 39.0413 72.3873 35.1524 69.9499L32.938 75.1714C27.9152 72.3422 23.7742 68.1772 20.9741 63.1382L13.4836 66.0511C10.6006 60.4738 9.10523 54.2835 9.1242 48.0052C9.14317 41.7269 10.676 35.5457 13.5926 29.9859L21.0236 33.0277C23.8432 27.9786 28.0157 23.8164 33.0717 21.0093L35.1524 26.3992C39.0714 24.0649 43.5481 22.8327 48.1096 22.8327C52.6711 22.8327 57.1479 24.0649 61.0668 26.3992L63.1475 21.0093C68.211 23.8138 72.3894 27.9784 75.2105 33.0326L70.0138 35.1629C72.4016 39.022 73.4172 43.2478 73.4172 48.1176C73.4172 52.6753 71.8319 56.9555 69.7215 60.6512L75.2898 63.0787Z" stroke="#1C5368" stroke-width="3" stroke-linecap="round" stroke-linejoin="round"/>
<path d="M87.1406 48.1226C87.1491 54.3167 85.6764 60.423 82.8454 65.9322L75.3154 63.0787L69.7471 60.6562C71.8575 56.9605 73.4428 52.6803 73.4428 48.1226C73.4428 43.2528 72.4272 39.027 70.0394 35.1679L75.2361 33.0376L82.6671 29.986C85.6134 35.5768 87.1491 41.8029 87.1406 48.1226Z" stroke="#1C5368" stroke-width="3" stroke-linecap="round" stroke-linejoin="round"/>
<path d="M66.0361 82.7609C60.4319 85.6546 54.2099 87.1468 47.903 87.1097C41.596 87.0726 35.3919 85.5073 29.8223 82.5479L32.9532 75.1713L35.1676 69.9498C39.0565 72.3872 43.1981 73.4176 48.1273 73.4176C52.6296 73.5156 57.0644 72.3115 60.8988 69.9498L63.133 75.2605L66.0361 82.7609Z" stroke="#1C5368" stroke-width="3" stroke-linecap="round" stroke-linejoin="round"/>
<path d="M30.1943 13.4989C35.7386 10.6328 41.889 9.13708 48.1303 9.13708C54.3716 9.13708 60.522 10.6328 66.0663 13.4989" stroke="#1C5368" stroke-width="3" stroke-linecap="round" stroke-linejoin="round"/>
<path d="M26.2701 61.0822C23.8724 57.2131 22.832 53.0072 22.832 48.1225C22.8281 43.5893 24.0485 39.1391 26.3643 35.2421" stroke="#1C5368" stroke-width="3" stroke-linecap="round" stroke-linejoin="round"/>
<path d="M61.082 26.4103V26.3992" stroke="#1C5368" stroke-width="3" stroke-linecap="round" stroke-linejoin="round"/>
<path d="M35.168 26.4103V26.3992" stroke="#1C5368" stroke-width="3" stroke-linecap="round" stroke-linejoin="round"/>
<path d="M66.0612 13.4989L63.1631 21.0092" stroke="#1C5368" stroke-width="3" stroke-linecap="round" stroke-linejoin="round"/>
<path d="M66.0361 82.772V82.7609" stroke="#1C5368" stroke-width="3" stroke-linecap="round" stroke-linejoin="round"/>
<path d="M29.8226 82.548L29.8174 82.5585" stroke="#1C5368" stroke-width="3" stroke-linecap="round" stroke-linejoin="round"/>
<path d="M13.5053 66.0511H13.4941" stroke="#1C5368" stroke-width="3" stroke-linecap="round" stroke-linejoin="round"/>
<path d="M26.2705 35.1677L21.0391 33.0276" stroke="#1C5368" stroke-width="3" stroke-linecap="round" stroke-linejoin="round"/>
<path d="M33.543 49.2619L37.1148 45.0213L46.4432 52.3285L59.8042 35.0291L64.1736 38.9724L47.7015 60.889L33.543 49.2619Z" fill="#1C5368" stroke="#1C5368" stroke-width="3" stroke-linecap="round" stroke-linejoin="round"/>
<path d="M30.1887 13.4989V13.5039L33.0868 21.0092H27.4541" stroke="#1C5368" stroke-width="3" stroke-linecap="round" stroke-linejoin="round"/>
<path d="M30.7734 25.6363L33.087 21.0093" stroke="#1C5368" stroke-width="3" stroke-linecap="round" stroke-linejoin="round"/>
<path d="M70.584 31.1154L75.211 33.0376L75.6816 28.1133" stroke="#1C5368" stroke-width="3" stroke-linecap="round" stroke-linejoin="round"/>
<path d="M65.476 70.7178L63.1328 75.2606H68.3296" stroke="#1C5368" stroke-width="3" stroke-linecap="round" stroke-linejoin="round"/>
<path d="M26.2702 61.0823L20.9893 63.1382L21.0388 68.9096" stroke="#1C5368" stroke-width="3" stroke-linecap="round" stroke-linejoin="round"/>
<path d="M25.7302 65.5507L20.9893 63.1381" stroke="#1C5368" stroke-width="3" stroke-linecap="round" stroke-linejoin="round"/>
</svg>
