<svg width="98" height="98" viewBox="0 0 98 98" fill="none" xmlns="http://www.w3.org/2000/svg">
<path d="M49.1275 96.4961C75.2884 96.4961 96.4961 75.2885 96.4961 49.1275C96.4961 22.9665 75.2884 1.75879 49.1275 1.75879C22.9665 1.75879 1.75879 22.9665 1.75879 49.1275C1.75879 75.2885 22.9665 96.4961 49.1275 96.4961Z" stroke="#1C5368" stroke-width="3" stroke-miterlimit="10"/>
<path d="M43.5115 45.1005C43.4869 45.1267 43.4571 45.1474 43.424 45.1613C43.3909 45.1752 43.3552 45.1821 43.3193 45.1815H35.8723C35.8571 45.1788 35.8414 45.1799 35.8267 45.1845C35.812 45.1891 35.7986 45.1973 35.7877 45.2082C35.7767 45.2191 35.7686 45.2325 35.764 45.2472C35.7593 45.2619 35.7583 45.2776 35.7609 45.2928V48.8342C35.7609 48.9101 35.7964 48.9505 35.8723 48.9505H40.7543C40.7902 48.9499 40.8258 48.9568 40.859 48.9707C40.8921 48.9847 40.9219 49.0054 40.9466 49.0315C40.9722 49.0565 40.9926 49.0864 41.0065 49.1194C41.0204 49.1524 41.0275 49.1879 41.0275 49.2237V51.4245C41.0275 51.4603 41.0204 51.4957 41.0065 51.5288C40.9926 51.5618 40.9722 51.5917 40.9466 51.6167C40.8954 51.6676 40.8265 51.6966 40.7543 51.6976H35.8723C35.8571 51.695 35.8414 51.696 35.8267 51.7007C35.812 51.7053 35.7986 51.7134 35.7877 51.7243C35.7767 51.7353 35.7686 51.7487 35.764 51.7634C35.7593 51.7781 35.7583 51.7937 35.7609 51.809V55.487C35.7583 55.5022 35.7593 55.5178 35.764 55.5325C35.7686 55.5472 35.7767 55.5606 35.7877 55.5715C35.7986 55.5825 35.812 55.5906 35.8267 55.5952C35.8414 55.5999 35.8571 55.6009 35.8723 55.5982H43.3193C43.3914 55.5993 43.4604 55.6283 43.5115 55.6792C43.5365 55.7045 43.5561 55.7345 43.5692 55.7676C43.5822 55.8006 43.5884 55.8359 43.5874 55.8714V58.0722C43.5884 58.1077 43.5822 58.143 43.5692 58.176C43.5561 58.2091 43.5365 58.2392 43.5115 58.2644C43.4869 58.2905 43.4571 58.3112 43.424 58.3252C43.3909 58.3391 43.3552 58.346 43.3193 58.3453H32.8317C32.7958 58.346 32.7602 58.3391 32.727 58.3252C32.6939 58.3112 32.6641 58.2905 32.6395 58.2644C32.6145 58.2392 32.5949 58.2091 32.5819 58.176C32.5688 58.143 32.5626 58.1077 32.5636 58.0722V42.7076C32.5626 42.6721 32.5688 42.6367 32.5819 42.6037C32.5949 42.5706 32.6145 42.5406 32.6395 42.5153C32.6641 42.4892 32.6939 42.4685 32.727 42.4546C32.7602 42.4406 32.7958 42.4337 32.8317 42.4344H43.3193C43.3552 42.4337 43.3909 42.4406 43.424 42.4546C43.4571 42.4685 43.4869 42.4892 43.5115 42.5153C43.5365 42.5406 43.5561 42.5706 43.5692 42.6037C43.5822 42.6367 43.5884 42.6721 43.5874 42.7076V44.9083C43.5884 44.9438 43.5822 44.9792 43.5692 45.0122C43.5561 45.0452 43.5365 45.0753 43.5115 45.1005Z" fill="#1C5368"/>
<path d="M54.2224 58.1127L51.3843 51.8292C51.3732 51.8022 51.3542 51.779 51.3299 51.7628C51.3055 51.7466 51.2769 51.738 51.2477 51.7382H49.138C49.1223 51.7366 49.1065 51.7385 49.0917 51.7438C49.0768 51.7491 49.0633 51.7576 49.0522 51.7688C49.0411 51.7799 49.0325 51.7934 49.0272 51.8082C49.022 51.823 49.02 51.8388 49.0216 51.8545V58.0469C49.0223 58.0826 49.0158 58.118 49.0027 58.1511C48.9895 58.1842 48.9699 58.2143 48.9449 58.2398C48.92 58.2652 48.8902 58.2854 48.8573 58.2992C48.8244 58.313 48.7891 58.3201 48.7535 58.3201H46.0974C46.0254 58.3188 45.9566 58.2896 45.9057 58.2386C45.8547 58.1877 45.8255 58.119 45.8242 58.0469V42.7076C45.8255 42.6356 45.8547 42.5668 45.9057 42.5159C45.9566 42.4649 46.0254 42.4357 46.0974 42.4344H52.5883C53.4675 42.4189 54.3368 42.6223 55.1178 43.0264C55.8383 43.4073 56.4311 43.9913 56.8228 44.706C57.2376 45.4834 57.445 46.3546 57.4248 47.2356C57.4508 48.1753 57.1799 49.0994 56.6508 49.8764C56.1248 50.6191 55.3665 51.1655 54.4956 51.4296C54.479 51.4337 54.4636 51.4415 54.4505 51.4525C54.4374 51.4635 54.4271 51.4774 54.4202 51.493C54.4134 51.5087 54.4102 51.5257 54.411 51.5428C54.4118 51.5598 54.4165 51.5765 54.4247 51.5915L57.5109 58.0115C57.5363 58.0534 57.5534 58.0997 57.5614 58.1481C57.5614 58.2695 57.4754 58.3302 57.3085 58.3302H54.5158C54.4505 58.3284 54.3874 58.3065 54.3349 58.2676C54.2824 58.2287 54.2431 58.1747 54.2224 58.1127ZM49.0216 45.2928V49.1732C49.02 49.1889 49.022 49.2047 49.0272 49.2195C49.0325 49.2344 49.0411 49.2478 49.0522 49.259C49.0633 49.2701 49.0768 49.2786 49.0917 49.2839C49.1065 49.2892 49.1223 49.2911 49.138 49.2896H52.1127C52.6845 49.3103 53.2418 49.107 53.6659 48.7229C53.8641 48.5329 54.0199 48.303 54.1228 48.0483C54.2257 47.7937 54.2734 47.5201 54.2629 47.2457C54.2727 46.9698 54.2246 46.695 54.1218 46.4388C54.0189 46.1826 53.8636 45.9508 53.6659 45.7583C53.4589 45.5619 53.2151 45.4085 52.9485 45.307C52.6819 45.2054 52.3979 45.1576 52.1127 45.1664H49.138C49.0773 45.1664 49.0216 45.217 49.0216 45.2928Z" fill="#1C5368"/>
<path d="M68.9494 43.0261C69.6917 43.4203 70.3021 44.0237 70.7049 44.7614C71.1316 45.5517 71.3476 46.4385 71.3322 47.3365C71.3516 48.223 71.1276 49.0979 70.6846 49.8661C70.2535 50.5916 69.6231 51.1781 68.8684 51.5558C68.0325 51.9695 67.1094 52.176 66.177 52.1579H62.9543C62.9391 52.1552 62.9235 52.1562 62.9087 52.1609C62.894 52.1655 62.8806 52.1737 62.8697 52.1846C62.8588 52.1955 62.8506 52.2089 62.846 52.2236C62.8413 52.2383 62.8403 52.254 62.843 52.2692V58.0568C62.8417 58.1289 62.8125 58.1976 62.7615 58.2486C62.7105 58.2995 62.6419 58.3287 62.5698 58.33H59.9138C59.8778 58.3307 59.8422 58.3238 59.8091 58.3098C59.776 58.2959 59.7462 58.2752 59.7215 58.2491C59.6965 58.2238 59.6769 58.1938 59.6639 58.1607C59.6508 58.1277 59.6446 58.0923 59.6456 58.0568V42.6872C59.6445 42.6141 59.6717 42.5434 59.7215 42.4899C59.7732 42.4404 59.8422 42.4131 59.9138 42.414H66.3135C67.2296 42.3934 68.1361 42.6039 68.9494 43.0261ZM67.5176 48.9807C67.73 48.7781 67.8967 48.5325 68.0066 48.2603C68.1166 47.9881 68.1671 47.6956 68.155 47.4023C68.167 47.1045 68.1164 46.8075 68.0066 46.5304C67.8969 46.2533 67.7303 46.0023 67.5176 45.7935C67.2923 45.5851 67.0277 45.4236 66.7393 45.3185C66.451 45.2134 66.1446 45.1668 65.838 45.1813H62.9543C62.9391 45.1787 62.9235 45.1797 62.9087 45.1843C62.894 45.189 62.8806 45.1971 62.8697 45.208C62.8588 45.2189 62.8506 45.2323 62.846 45.2471C62.8413 45.2618 62.8403 45.2774 62.843 45.2926V49.4715C62.8403 49.4867 62.8413 49.5023 62.846 49.517C62.8506 49.5318 62.8588 49.5451 62.8697 49.5561C62.8806 49.567 62.894 49.5751 62.9087 49.5798C62.9235 49.5844 62.9391 49.5854 62.9543 49.5828H65.838C66.1438 49.5978 66.4496 49.5524 66.7378 49.4491C67.026 49.3458 67.291 49.1866 67.5176 48.9807Z" fill="#1C5368"/>
<path d="M19.5465 12.1301V26.235H7.64746" stroke="#1C5368" stroke-width="3" stroke-linecap="round" stroke-linejoin="round"/>
<path d="M3.37793 36.8135H19.5469V65.3622H5.0525" stroke="#1C5368" stroke-width="3" stroke-linecap="round" stroke-linejoin="round"/>
<path d="M35.6143 94.5332V77.8533H64.1629V94.0222" stroke="#1C5368" stroke-width="3" stroke-linecap="round" stroke-linejoin="round"/>
<path d="M11.4619 77.8533H19.5464V86.1199" stroke="#1C5368" stroke-width="3" stroke-linecap="round" stroke-linejoin="round"/>
<path d="M93.5974 65.4735C89.7886 65.0843 86.2676 63.27 83.7401 60.3942C81.2126 57.5184 79.8654 53.7936 79.9684 49.9664C80.0714 46.1391 81.6171 42.4922 84.2956 39.7565C86.9742 37.0209 90.5877 35.3986 94.4119 35.2148" stroke="#1C5368" stroke-width="3" stroke-linecap="round" stroke-linejoin="round"/>
<path d="M40.0967 40.9065L49.8912 31.3801L59.6452 40.9065" stroke="#1C5368" stroke-width="3" stroke-linecap="round" stroke-linejoin="round"/>
<path d="M59.6452 60.6016L49.8456 70.1229L40.0967 60.6016" stroke="#1C5368" stroke-width="3" stroke-linecap="round" stroke-linejoin="round"/>
<path d="M19.5469 50.3773L30.3127 50.3469" stroke="#1C5368" stroke-width="2" stroke-linecap="round" stroke-linejoin="round"/>
<path d="M72.7891 50.3772H80.0894" stroke="#1C5368" stroke-width="2" stroke-linecap="round" stroke-linejoin="round"/>
<path d="M49.8457 70.1228L49.871 77.8532" stroke="#1C5368" stroke-width="2" stroke-linecap="round" stroke-linejoin="round"/>
</svg>
