<svg width="96" height="103" viewBox="0 0 96 103" fill="none" xmlns="http://www.w3.org/2000/svg">
<path d="M59.6557 34.291H36.5898V74.4978H59.6557V34.291Z" stroke="#1C5368" stroke-width="3" stroke-linecap="round" stroke-linejoin="round"/>
<path d="M54.5087 8.45093C66.078 10.0636 76.6123 15.9838 84.0052 25.0278C91.3981 34.0719 95.1048 45.5732 94.3841 57.2321C93.6634 68.8911 88.5684 79.8483 80.1179 87.913C71.6674 95.9777 60.4842 100.555 48.8043 100.731C37.1245 100.906 25.8088 96.6667 17.1199 88.8595C8.43091 81.0523 3.00906 70.2531 1.93842 58.6211C0.867787 46.9891 4.22727 35.3816 11.3451 26.1195C18.463 16.8574 28.8147 10.6234 40.3303 8.66396" stroke="#1C5368" stroke-width="3" stroke-miterlimit="10"/>
<path d="M34.4893 77.0986H61.8403" stroke="#1C5368" stroke-width="3" stroke-linecap="round" stroke-linejoin="round"/>
<path d="M71.6445 54.0276L81.3643 44.5803L91.307 54.0276" stroke="#1C5368" stroke-width="3" stroke-linecap="round" stroke-linejoin="round"/>
<path d="M73.6211 52.1106V62.7716H89.3203L89.2857 52.1106" stroke="#1C5368" stroke-width="3" stroke-linecap="round" stroke-linejoin="round"/>
<path d="M82.9589 54.1763H79.9766V58.3079H82.9589V54.1763Z" stroke="#1C5368" stroke-width="2" stroke-linecap="round" stroke-linejoin="round"/>
<path d="M4.78027 54.3793L14.5 44.937L24.4427 54.3793" stroke="#1C5368" stroke-width="3" stroke-linecap="round" stroke-linejoin="round"/>
<path d="M6.75684 52.4622V63.1232H22.4511L22.4214 52.4622" stroke="#1C5368" stroke-width="3" stroke-linecap="round" stroke-linejoin="round"/>
<path d="M16.0946 54.5281H13.1123V58.6597H16.0946V54.5281Z" stroke="#1C5368" stroke-width="2" stroke-linecap="round" stroke-linejoin="round"/>
<path d="M43.3123 37.7686H40.7412V42.242H43.3123V37.7686Z" stroke="#1C5368" stroke-width="2" stroke-linecap="round" stroke-linejoin="round"/>
<path d="M43.3123 46.2351H40.7412V50.7086H43.3123V46.2351Z" stroke="#1C5368" stroke-width="2" stroke-linecap="round" stroke-linejoin="round"/>
<path d="M43.3123 54.7065H40.7412V59.18H43.3123V54.7065Z" stroke="#1C5368" stroke-width="2" stroke-linecap="round" stroke-linejoin="round"/>
<path d="M43.3123 63.1777H40.7412V67.6512H43.3123V63.1777Z" stroke="#1C5368" stroke-width="2" stroke-linecap="round" stroke-linejoin="round"/>
<path d="M49.4549 37.7686H46.8838V42.242H49.4549V37.7686Z" stroke="#1C5368" stroke-width="2" stroke-linecap="round" stroke-linejoin="round"/>
<path d="M49.4549 46.2351H46.8838V50.7086H49.4549V46.2351Z" stroke="#1C5368" stroke-width="2" stroke-linecap="round" stroke-linejoin="round"/>
<path d="M49.4549 54.7065H46.8838V59.18H49.4549V54.7065Z" stroke="#1C5368" stroke-width="2" stroke-linecap="round" stroke-linejoin="round"/>
<path d="M49.4549 63.1777H46.8838V67.6512H49.4549V63.1777Z" stroke="#1C5368" stroke-width="2" stroke-linecap="round" stroke-linejoin="round"/>
<path d="M55.5985 37.7686H53.0273V42.242H55.5985V37.7686Z" stroke="#1C5368" stroke-width="2" stroke-linecap="round" stroke-linejoin="round"/>
<path d="M55.5985 46.2351H53.0273V50.7086H55.5985V46.2351Z" stroke="#1C5368" stroke-width="2" stroke-linecap="round" stroke-linejoin="round"/>
<path d="M55.5985 54.7065H53.0273V59.18H55.5985V54.7065Z" stroke="#1C5368" stroke-width="2" stroke-linecap="round" stroke-linejoin="round"/>
<path d="M55.5985 63.1777H53.0273V67.6512H55.5985V63.1777Z" stroke="#1C5368" stroke-width="2" stroke-linecap="round" stroke-linejoin="round"/>
<path d="M38.7246 94.7845L48.4444 85.3372L58.3871 94.7845" stroke="#1C5368" stroke-width="3" stroke-linecap="round" stroke-linejoin="round"/>
<path d="M56.386 99.7879L56.3662 92.8672" stroke="#1C5368" stroke-width="3" stroke-linecap="round" stroke-linejoin="round"/>
<path d="M40.6963 100.1V92.8672" stroke="#1C5368" stroke-width="3" stroke-linecap="round" stroke-linejoin="round"/>
<path d="M50.0399 94.928H47.0576V99.0596H50.0399V94.928Z" stroke="#1C5368" stroke-width="2" stroke-linecap="round" stroke-linejoin="round"/>
<path d="M57.391 11.1905L55.3697 9.2683L54.5077 8.45089L47.4532 1.74316L40.3294 8.66391L39.7052 9.2683L37.7285 11.1905" stroke="#1C5368" stroke-width="3" stroke-linecap="round" stroke-linejoin="round"/>
<path d="M39.7061 9.26831V19.9343H55.4053L55.3706 9.26831" stroke="#1C5368" stroke-width="3" stroke-linecap="round" stroke-linejoin="round"/>
<path d="M49.0487 11.334H46.0664V15.4656H49.0487V11.334Z" stroke="#1C5368" stroke-width="2" stroke-linecap="round" stroke-linejoin="round"/>
<path d="M24.8085 57.4409H22.4355" stroke="#1C5368" stroke-width="2" stroke-linecap="round" stroke-linejoin="round"/>
<path d="M27.8604 57.4409H30.8575" stroke="#1C5368" stroke-width="2" stroke-linecap="round" stroke-linejoin="round"/>
<path d="M33.667 57.4409H36.6642" stroke="#1C5368" stroke-width="2" stroke-linecap="round" stroke-linejoin="round"/>
<path d="M59.7744 57.7927H62.7716" stroke="#1C5368" stroke-width="2" stroke-linecap="round" stroke-linejoin="round"/>
<path d="M65.8232 57.7927H68.8204" stroke="#1C5368" stroke-width="2" stroke-linecap="round" stroke-linejoin="round"/>
<path d="M73.6203 57.7927H71.6338" stroke="#1C5368" stroke-width="2" stroke-linecap="round" stroke-linejoin="round"/>
<path d="M47.5576 34.291V32.2896" stroke="#1C5368" stroke-width="2" stroke-linecap="round" stroke-linejoin="round"/>
<path d="M47.5576 29.2379V26.2407" stroke="#1C5368" stroke-width="2" stroke-linecap="round" stroke-linejoin="round"/>
<path d="M47.5576 23.4317V20.4346" stroke="#1C5368" stroke-width="2" stroke-linecap="round" stroke-linejoin="round"/>
<path d="M48.1221 85.9068V82.9097" stroke="#1C5368" stroke-width="2" stroke-linecap="round" stroke-linejoin="round"/>
<path d="M48.1221 80.0958V77.0986" stroke="#1C5368" stroke-width="2" stroke-linecap="round" stroke-linejoin="round"/>
</svg>
