<svg width="105" height="96" viewBox="0 0 105 96" fill="none" xmlns="http://www.w3.org/2000/svg">
<path d="M13.6837 16.939C19.1054 10.9462 26.0048 6.48113 33.6925 3.98984C41.3802 1.49855 49.5871 1.0683 57.4932 2.74207C65.3993 4.41583 72.7278 8.13501 78.7463 13.528C84.7649 18.921 89.2629 25.799 91.7908 33.4747C92.3304 35.0912 92.775 36.7379 93.1223 38.4063C94.4218 44.6341 94.4242 51.0628 93.1294 57.2915C91.8346 63.5202 89.2704 69.4154 85.5967 74.6094C81.3196 80.6175 75.6699 85.5177 69.1174 88.9025C62.5649 92.2872 55.2991 94.0587 47.924 94.0696C40.3435 94.0747 32.8786 92.2112 26.1899 88.6441C19.5011 85.0769 13.7947 79.9161 9.5757 73.6181C8.82116 72.4937 8.09622 71.3348 7.46004 70.166C4.09662 64.0364 2.16642 57.2242 1.8145 50.2413C1.46258 43.2584 2.6981 36.2866 5.42821 29.85M51.6671 58.986C51.6671 59.2375 51.6671 59.4792 51.6671 59.7553C51.6791 60.5525 51.7666 61.3468 51.9285 62.1275C52.0302 62.6205 52.1636 63.1064 52.3279 63.5823L52.4907 64.0508L51.6671 58.986ZM49.7339 67.0591C49.0507 65.7294 48.5529 64.3123 48.2544 62.8475L49.7339 67.0591Z" stroke="#1C5368" stroke-width="3" stroke-linecap="round" stroke-linejoin="round"/>
<path d="M70.5512 70.6099C68.8286 71.5798 66.9029 72.1331 64.9282 72.2256C62.9535 72.3181 60.9845 71.9472 59.1788 71.1425C58.8172 70.9782 58.467 70.8006 58.1284 70.6099C56.5729 69.734 55.2187 68.5411 54.1535 67.1085C54.0204 66.9309 53.8921 66.7485 53.7738 66.5611C53.2515 65.778 52.8213 64.9374 52.4916 64.0558L52.3288 63.5873C52.1645 63.1114 52.0311 62.6255 51.9294 62.1324C51.7674 61.3518 51.6799 60.5575 51.668 59.7603C51.668 59.5039 51.668 59.2425 51.668 58.991C51.7089 57.9799 51.8745 56.9778 52.1611 56.0074C52.8059 53.7951 54.0407 51.8001 55.7331 50.2363C57.4255 48.6724 59.5117 47.5988 61.7679 47.1304C61.9356 47.0959 62.1082 47.0614 62.2611 47.0367C64.899 46.5959 67.6088 47.0052 69.9988 48.2055C72.0584 49.2359 73.7986 50.8076 75.0327 52.7519C76.2668 54.6963 76.9484 56.9399 77.0041 59.2422C77.0599 61.5444 76.4878 63.8184 75.3492 65.8203C74.2107 67.8221 72.5486 69.4761 70.5413 70.605L70.5512 70.6099Z" stroke="#1C5368" stroke-width="3" stroke-linecap="round" stroke-linejoin="round"/>
<path d="M74.4369 72.4938C72.6509 73.8869 70.5961 74.8955 68.4016 75.4561C66.2071 76.0168 63.9203 76.1175 61.685 75.7518C59.4497 75.3861 57.3142 74.562 55.4128 73.3313C53.5114 72.1005 51.885 70.4897 50.6361 68.6001C49.3872 66.7105 48.5427 64.5831 48.1556 62.3514C47.7686 60.1197 47.8473 57.832 48.387 55.6322C48.9266 53.4325 49.9155 51.3681 51.2914 49.5689C52.6673 47.7697 54.4006 46.2746 56.3822 45.1775C56.9541 44.8583 57.5455 44.575 58.1526 44.3293C59.0338 43.9708 59.9447 43.6903 60.8749 43.4909C62.0098 43.2493 63.1668 43.127 64.3271 43.126C64.7808 43.126 65.2345 43.126 65.6832 43.1802C67.3483 43.3137 68.9822 43.7064 70.5261 44.3441C72.7058 45.2325 74.6691 46.579 76.2829 48.2926C77.8967 50.0061 79.1233 52.0465 79.8795 54.2755C80.6358 56.5045 80.9041 58.8701 80.6661 61.2118C80.4282 63.5536 79.6897 65.8168 78.5005 67.8482V67.8482" stroke="#1C5368" stroke-width="3" stroke-linecap="round" stroke-linejoin="round"/>
<path d="M85.5822 74.6242C84.3775 76.3097 83.0593 77.9112 81.6369 79.4177L74.4121 72.5134L78.4807 67.8777L85.5822 74.6242Z" fill="#1C5368" stroke="#1C5368" stroke-width="3" stroke-linecap="round" stroke-linejoin="round"/>
<path d="M48.2396 62.8426C48.5381 64.3074 49.0359 65.7245 49.7191 67.0542L42.7063 74.7081L27.3295 54.2418L9.57562 73.628C8.82108 72.5036 8.09614 71.3447 7.45996 70.1759L27.3443 48.7036L43.0761 68.6964L48.2396 62.8426Z" fill="#1C5368" stroke="#1C5368" stroke-width="3" stroke-linecap="round" stroke-linejoin="round"/>
<path d="M65.6934 43.1851L80.7595 26.2153L89.4342 36.3843L91.7767 33.4747L96.2941 27.8674L99.3714 30.5897L93.1083 38.4211L89.9076 42.4207L80.7595 33.1936L70.5362 44.3489" fill="#1C5368"/>
<path d="M65.6934 43.1851L80.7595 26.2153L89.4342 36.3843L91.7767 33.4747L96.2941 27.8674L99.3714 30.5897L93.1083 38.4211L89.9076 42.4207L80.7595 33.1936L70.5362 44.3489" stroke="#1C5368" stroke-width="3" stroke-linecap="round" stroke-linejoin="round"/>
<path d="M51.668 58.9861C51.668 59.2376 51.668 59.4793 51.668 59.7554C51.6799 60.5526 51.7674 61.3469 51.9294 62.1275C52.0311 62.6206 52.1645 63.1065 52.3288 63.5824L52.4916 64.0509" fill="#1C5368"/>
<path d="M51.668 58.9861C51.668 59.2376 51.668 59.4793 51.668 59.7554C51.6799 60.5526 51.7674 61.3469 51.9294 62.1275C52.0311 62.6206 52.1645 63.1065 52.3288 63.5824L52.4916 64.0509" stroke="#1C5368" stroke-width="3" stroke-linecap="round" stroke-linejoin="round"/>
<path d="M75.2259 53.0483L59.1834 71.1424C58.8217 70.978 58.4716 70.8005 58.1329 70.6098C56.5774 69.7338 55.2232 68.5409 54.1581 67.1084C54.0249 66.9308 53.8967 66.7484 53.7783 66.561L70.0527 48.2153C72.2002 49.3036 73.9943 50.9797 75.2259 53.0483Z" fill="#1C5368" stroke="#1C5368" stroke-width="3" stroke-linecap="round" stroke-linejoin="round"/>
<path d="M92.9258 26.2153L101.517 33.3119L103.401 21.1406L92.9258 26.2153Z" fill="#1C5368" stroke="#1C5368" stroke-width="3" stroke-linecap="round" stroke-linejoin="round"/>
<path d="M64.7563 43.1308V16.939H13.6696H5.40918V29.85V54.1234H48.8321" stroke="#1C5368" stroke-width="3" stroke-linecap="round" stroke-linejoin="round"/>
<path d="M8.98438 20.7019V25.2193" stroke="#1C5368" stroke-width="2" stroke-linecap="round" stroke-linejoin="round"/>
<path d="M14.1328 27.8528V32.3702" stroke="#1C5368" stroke-width="2" stroke-linecap="round" stroke-linejoin="round"/>
<path d="M22.1611 20.7019V25.2193" stroke="#1C5368" stroke-width="2" stroke-linecap="round" stroke-linejoin="round"/>
<path d="M25.4854 20.7019V25.2193" stroke="#1C5368" stroke-width="2" stroke-linecap="round" stroke-linejoin="round"/>
<path d="M26.9258 27.8528V32.3702" stroke="#1C5368" stroke-width="2" stroke-linecap="round" stroke-linejoin="round"/>
<path d="M28.583 20.7019V25.2193" stroke="#1C5368" stroke-width="2" stroke-linecap="round" stroke-linejoin="round"/>
<path d="M36.5771 20.7019V25.2193" stroke="#1C5368" stroke-width="2" stroke-linecap="round" stroke-linejoin="round"/>
<path d="M45.873 20.7019V25.2193" stroke="#1C5368" stroke-width="2" stroke-linecap="round" stroke-linejoin="round"/>
<path d="M48.9795 20.7019V25.2193" stroke="#1C5368" stroke-width="2" stroke-linecap="round" stroke-linejoin="round"/>
<path d="M57.2305 20.7019V25.2193" stroke="#1C5368" stroke-width="2" stroke-linecap="round" stroke-linejoin="round"/>
<path d="M12.8996 25.2193C13.7821 25.2193 14.4975 24.208 14.4975 22.9606C14.4975 21.7132 13.7821 20.7019 12.8996 20.7019C12.0171 20.7019 11.3018 21.7132 11.3018 22.9606C11.3018 24.208 12.0171 25.2193 12.8996 25.2193Z" stroke="#1C5368" stroke-width="2" stroke-linecap="round" stroke-linejoin="round"/>
<path d="M17.9846 25.2193C18.867 25.2193 19.5824 24.208 19.5824 22.9606C19.5824 21.7132 18.867 20.7019 17.9846 20.7019C17.1021 20.7019 16.3867 21.7132 16.3867 22.9606C16.3867 24.208 17.1021 25.2193 17.9846 25.2193Z" stroke="#1C5368" stroke-width="2" stroke-linecap="round" stroke-linejoin="round"/>
<path d="M8.98438 42.7363V47.2537" stroke="#1C5368" stroke-width="2" stroke-linecap="round" stroke-linejoin="round"/>
<path d="M22.1611 42.7363V47.2537" stroke="#1C5368" stroke-width="2" stroke-linecap="round" stroke-linejoin="round"/>
<path d="M25.4854 42.7363V47.2537" stroke="#1C5368" stroke-width="2" stroke-linecap="round" stroke-linejoin="round"/>
<path d="M12.8996 47.2537C13.7821 47.2537 14.4975 46.2424 14.4975 44.995C14.4975 43.7476 13.7821 42.7363 12.8996 42.7363C12.0171 42.7363 11.3018 43.7476 11.3018 44.995C11.3018 46.2424 12.0171 47.2537 12.8996 47.2537Z" stroke="#1C5368" stroke-width="2" stroke-linecap="round" stroke-linejoin="round"/>
<path d="M17.9846 47.2537C18.867 47.2537 19.5824 46.2424 19.5824 44.995C19.5824 43.7476 18.867 42.7363 17.9846 42.7363C17.1021 42.7363 16.3867 43.7476 16.3867 44.995C16.3867 46.2424 17.1021 47.2537 17.9846 47.2537Z" stroke="#1C5368" stroke-width="2" stroke-linecap="round" stroke-linejoin="round"/>
<path d="M14.7646 35.2847V39.7971" stroke="#1C5368" stroke-width="2" stroke-linecap="round" stroke-linejoin="round"/>
<path d="M18.0879 35.2847V39.7971" stroke="#1C5368" stroke-width="2" stroke-linecap="round" stroke-linejoin="round"/>
<path d="M10.5871 39.7972C11.4696 39.7972 12.1849 38.7859 12.1849 37.5385C12.1849 36.291 11.4696 35.2798 10.5871 35.2798C9.70464 35.2798 8.98926 36.291 8.98926 37.5385C8.98926 38.7859 9.70464 39.7972 10.5871 39.7972Z" stroke="#1C5368" stroke-width="2" stroke-linecap="round" stroke-linejoin="round"/>
<path d="M17.965 32.3702C18.8475 32.3702 19.5629 31.3589 19.5629 30.1115C19.5629 28.864 18.8475 27.8528 17.965 27.8528C17.0826 27.8528 16.3672 28.864 16.3672 30.1115C16.3672 31.3589 17.0826 32.3702 17.965 32.3702Z" stroke="#1C5368" stroke-width="2" stroke-linecap="round" stroke-linejoin="round"/>
<path d="M10.217 32.3702C11.0995 32.3702 11.8148 31.3589 11.8148 30.1115C11.8148 28.864 11.0995 27.8528 10.217 27.8528C9.33452 27.8528 8.61914 28.864 8.61914 30.1115C8.61914 31.3589 9.33452 32.3702 10.217 32.3702Z" stroke="#1C5368" stroke-width="2" stroke-linecap="round" stroke-linejoin="round"/>
<path d="M23.0686 32.3702C23.951 32.3702 24.6664 31.3589 24.6664 30.1115C24.6664 28.864 23.951 27.8528 23.0686 27.8528C22.1861 27.8528 21.4707 28.864 21.4707 30.1115C21.4707 31.3589 22.1861 32.3702 23.0686 32.3702Z" stroke="#1C5368" stroke-width="2" stroke-linecap="round" stroke-linejoin="round"/>
<path d="M38.175 32.3702C39.0575 32.3702 39.7728 31.3589 39.7728 30.1115C39.7728 28.864 39.0575 27.8528 38.175 27.8528C37.2925 27.8528 36.5771 28.864 36.5771 30.1115C36.5771 31.3589 37.2925 32.3702 38.175 32.3702Z" stroke="#1C5368" stroke-width="2" stroke-linecap="round" stroke-linejoin="round"/>
<path d="M43.0471 32.3702C43.9295 32.3702 44.6449 31.3589 44.6449 30.1115C44.6449 28.864 43.9295 27.8528 43.0471 27.8528C42.1646 27.8528 41.4492 28.864 41.4492 30.1115C41.4492 31.3589 42.1646 32.3702 43.0471 32.3702Z" stroke="#1C5368" stroke-width="2" stroke-linecap="round" stroke-linejoin="round"/>
<path d="M57.5608 32.3702C58.4432 32.3702 59.1586 31.3589 59.1586 30.1115C59.1586 28.864 58.4432 27.8528 57.5608 27.8528C56.6783 27.8528 55.9629 28.864 55.9629 30.1115C55.9629 31.3589 56.6783 32.3702 57.5608 32.3702Z" stroke="#1C5368" stroke-width="2" stroke-linecap="round" stroke-linejoin="round"/>
<path d="M61.2795 39.7972C62.162 39.7972 62.8773 38.7859 62.8773 37.5385C62.8773 36.291 62.162 35.2798 61.2795 35.2798C60.397 35.2798 59.6816 36.291 59.6816 37.5385C59.6816 38.7859 60.397 39.7972 61.2795 39.7972Z" stroke="#1C5368" stroke-width="2" stroke-linecap="round" stroke-linejoin="round"/>
<path d="M33.3068 32.3702C34.1893 32.3702 34.9047 31.3589 34.9047 30.1115C34.9047 28.864 34.1893 27.8528 33.3068 27.8528C32.4244 27.8528 31.709 28.864 31.709 30.1115C31.709 31.3589 32.4244 32.3702 33.3068 32.3702Z" stroke="#1C5368" stroke-width="2" stroke-linecap="round" stroke-linejoin="round"/>
<path d="M32.6164 25.2193C33.4989 25.2193 34.2142 24.208 34.2142 22.9606C34.2142 21.7132 33.4989 20.7019 32.6164 20.7019C31.7339 20.7019 31.0186 21.7132 31.0186 22.9606C31.0186 24.208 31.7339 25.2193 32.6164 25.2193Z" stroke="#1C5368" stroke-width="2" stroke-linecap="round" stroke-linejoin="round"/>
<path d="M46.3018 27.8528V32.3702" stroke="#1C5368" stroke-width="2" stroke-linecap="round" stroke-linejoin="round"/>
<path d="M54.2959 27.8528V32.3702" stroke="#1C5368" stroke-width="2" stroke-linecap="round" stroke-linejoin="round"/>
<path d="M50.3361 32.3702C51.2186 32.3702 51.934 31.3589 51.934 30.1115C51.934 28.864 51.2186 27.8528 50.3361 27.8528C49.4537 27.8528 48.7383 28.864 48.7383 30.1115C48.7383 31.3589 49.4537 32.3702 50.3361 32.3702Z" stroke="#1C5368" stroke-width="2" stroke-linecap="round" stroke-linejoin="round"/>
<path d="M22.4182 39.7972C23.3006 39.7972 24.016 38.7859 24.016 37.5385C24.016 36.291 23.3006 35.2798 22.4182 35.2798C21.5357 35.2798 20.8203 36.291 20.8203 37.5385C20.8203 38.7859 21.5357 39.7972 22.4182 39.7972Z" stroke="#1C5368" stroke-width="2" stroke-linecap="round" stroke-linejoin="round"/>
<path d="M25.9248 35.2847V39.7971" stroke="#1C5368" stroke-width="2" stroke-linecap="round" stroke-linejoin="round"/>
<path d="M33.667 35.2847V39.7971" stroke="#1C5368" stroke-width="2" stroke-linecap="round" stroke-linejoin="round"/>
<path d="M36.5771 35.2847V39.7971" stroke="#1C5368" stroke-width="2" stroke-linecap="round" stroke-linejoin="round"/>
<path d="M29.7072 39.7972C30.5897 39.7972 31.3051 38.7859 31.3051 37.5385C31.3051 36.291 30.5897 35.2798 29.7072 35.2798C28.8248 35.2798 28.1094 36.291 28.1094 37.5385C28.1094 38.7859 28.8248 39.7972 29.7072 39.7972Z" stroke="#1C5368" stroke-width="2" stroke-linecap="round" stroke-linejoin="round"/>
<path d="M34.9055 47.2537C35.7879 47.2537 36.5033 46.2424 36.5033 44.995C36.5033 43.7476 35.7879 42.7363 34.9055 42.7363C34.023 42.7363 33.3076 43.7476 33.3076 44.995C33.3076 46.2424 34.023 47.2537 34.9055 47.2537Z" stroke="#1C5368" stroke-width="2" stroke-linecap="round" stroke-linejoin="round"/>
<path d="M38.416 42.7363V47.2537" stroke="#1C5368" stroke-width="2" stroke-linecap="round" stroke-linejoin="round"/>
<path d="M46.1592 42.7363V47.2537" stroke="#1C5368" stroke-width="2" stroke-linecap="round" stroke-linejoin="round"/>
<path d="M49.0684 42.7363V47.2537" stroke="#1C5368" stroke-width="2" stroke-linecap="round" stroke-linejoin="round"/>
<path d="M42.1984 47.2537C43.0809 47.2537 43.7963 46.2424 43.7963 44.995C43.7963 43.7476 43.0809 42.7363 42.1984 42.7363C41.316 42.7363 40.6006 43.7476 40.6006 44.995C40.6006 46.2424 41.316 47.2537 42.1984 47.2537Z" stroke="#1C5368" stroke-width="2" stroke-linecap="round" stroke-linejoin="round"/>
<path d="M47.1105 39.7972C47.993 39.7972 48.7084 38.7859 48.7084 37.5385C48.7084 36.291 47.993 35.2798 47.1105 35.2798C46.2281 35.2798 45.5127 36.291 45.5127 37.5385C45.5127 38.7859 46.2281 39.7972 47.1105 39.7972Z" stroke="#1C5368" stroke-width="2" stroke-linecap="round" stroke-linejoin="round"/>
<path d="M50.7646 35.2847V39.7971" stroke="#1C5368" stroke-width="2" stroke-linecap="round" stroke-linejoin="round"/>
<path d="M57.9805 35.2847V39.7971" stroke="#1C5368" stroke-width="2" stroke-linecap="round" stroke-linejoin="round"/>
<path d="M54.3996 39.7972C55.2821 39.7972 55.9974 38.7859 55.9974 37.5385C55.9974 36.291 55.2821 35.2798 54.3996 35.2798C53.5171 35.2798 52.8018 36.291 52.8018 37.5385C52.8018 38.7859 53.5171 39.7972 54.3996 39.7972Z" stroke="#1C5368" stroke-width="2" stroke-linecap="round" stroke-linejoin="round"/>
<path d="M60.8746 43.4958C59.9444 43.6952 59.0335 43.9757 58.1523 44.3342C58.3496 43.407 58.9562 42.7363 59.6811 42.7363C59.9277 42.7532 60.1661 42.8315 60.3745 42.9642C60.583 43.0968 60.7549 43.2796 60.8746 43.4958V43.4958Z" stroke="#1C5368" stroke-width="2" stroke-linecap="round" stroke-linejoin="round"/>
<path d="M56.3818 45.1824V42.7363" stroke="#1C5368" stroke-width="2" stroke-linecap="round" stroke-linejoin="round"/>
<path d="M52.8019 47.2537C53.6844 47.2537 54.3998 46.2424 54.3998 44.995C54.3998 43.7476 53.6844 42.7363 52.8019 42.7363C51.9195 42.7363 51.2041 43.7476 51.2041 44.995C51.2041 46.2424 51.9195 47.2537 52.8019 47.2537Z" stroke="#1C5368" stroke-width="2" stroke-linecap="round" stroke-linejoin="round"/>
<path d="M53.1027 25.2193C53.9852 25.2193 54.7006 24.208 54.7006 22.9606C54.7006 21.7132 53.9852 20.7019 53.1027 20.7019C52.2203 20.7019 51.5049 21.7132 51.5049 22.9606C51.5049 24.208 52.2203 25.2193 53.1027 25.2193Z" stroke="#1C5368" stroke-width="2" stroke-linecap="round" stroke-linejoin="round"/>
<path d="M60.924 25.2193C61.8065 25.2193 62.5219 24.208 62.5219 22.9606C62.5219 21.7132 61.8065 20.7019 60.924 20.7019C60.0416 20.7019 59.3262 21.7132 59.3262 22.9606C59.3262 24.208 60.0416 25.2193 60.924 25.2193Z" stroke="#1C5368" stroke-width="2" stroke-linecap="round" stroke-linejoin="round"/>
</svg>
