<svg width="96" height="97" viewBox="0 0 96 97" fill="none" xmlns="http://www.w3.org/2000/svg">
<path d="M32.2598 4.52226C42.503 0.813705 53.7222 0.813705 63.9654 4.52226" stroke="#1C5368" stroke-width="3" stroke-miterlimit="10"/>
<path d="M19.9091 11.3142C12.3008 17.1417 6.68448 25.1831 3.83257 34.3327C0.980652 43.4822 1.03316 53.2906 3.98287 62.4091C6.93259 71.5276 12.6346 79.5084 20.305 85.2541C27.9753 90.9998 37.2373 94.2283 46.8172 94.4956C56.3972 94.7629 65.8248 92.0559 73.8036 86.7468C81.7824 81.4378 87.9206 73.7873 91.3742 64.8475C94.8278 55.9077 95.4271 46.1175 93.0899 36.8232C90.7526 27.5289 85.5934 19.1868 78.3218 12.9441" stroke="#1C5368" stroke-width="3" stroke-linecap="round" stroke-linejoin="round"/>
<path d="M19.9092 26.1614V11.3142V4.52722H32.2595H63.985H78.3219V12.9193V83.3257" stroke="#1C5368" stroke-width="3" stroke-linecap="round" stroke-linejoin="round"/>
<path d="M19.9092 84.9357V58.2237V58.2188" stroke="#1C5368" stroke-width="3" stroke-linecap="round" stroke-linejoin="round"/>
<path d="M48.1221 42.4452C48.1058 43.4325 47.9963 44.4161 47.7951 45.3829C47.3283 47.609 46.389 49.709 45.0407 51.5407C43.725 53.3178 42.0486 54.7967 40.1214 55.8805C37.1035 57.5751 33.6105 58.2256 30.1849 57.731C26.7593 57.2363 23.593 55.6243 21.1778 53.1451C18.7626 50.666 17.2337 47.4587 16.8287 44.0214C16.4236 40.5841 17.1651 37.1092 18.9379 34.1366C20.7108 31.164 23.4157 28.8601 26.6324 27.5828C29.8492 26.3055 33.3978 26.1263 36.7269 27.073C40.056 28.0197 42.9792 30.0394 45.0425 32.8183C47.1058 35.5971 48.1936 38.9796 48.1369 42.4402L48.1221 42.4452Z" stroke="#1C5368" stroke-width="3" stroke-linecap="round" stroke-linejoin="round"/>
<path d="M19.9092 58.2188C23.8954 61.3272 28.8973 62.8375 33.9376 62.4547C38.9779 62.0719 43.6943 59.8235 47.1653 56.1487C50.6363 52.474 52.6123 47.6371 52.7072 42.5832C52.8022 37.5292 51.0092 32.6215 47.6788 28.819C44.3483 25.0165 39.7196 22.5925 34.6973 22.0206C29.6749 21.4487 24.6198 22.7701 20.5197 25.7266C16.4196 28.683 13.5692 33.0621 12.5256 38.008C11.4819 42.9539 12.32 48.1112 14.876 52.4722V52.4722" stroke="#1C5368" stroke-width="3" stroke-linecap="round" stroke-linejoin="round"/>
<path d="M19.9097 58.2188L7.35132 70.2521C6.05299 67.86 4.9672 65.3585 4.10645 62.7765L14.8765 52.4722L19.9097 58.2188Z" fill="#1C5368" stroke="#1C5368" stroke-width="3" stroke-linecap="round" stroke-linejoin="round"/>
<path d="M24.7246 11.3142H42.7869" stroke="#1C5368" stroke-width="2" stroke-linecap="round" stroke-linejoin="round"/>
<path d="M24.7246 14.2717H42.7869" stroke="#1C5368" stroke-width="2" stroke-linecap="round" stroke-linejoin="round"/>
<path d="M56.9258 18.1904H72.1346" stroke="#1C5368" stroke-width="2" stroke-linecap="round" stroke-linejoin="round"/>
<path d="M59.0664 21.8613H70.3516" stroke="#1C5368" stroke-width="2" stroke-linecap="round" stroke-linejoin="round"/>
<path d="M59.0664 24.7247H70.3516" stroke="#1C5368" stroke-width="2" stroke-linecap="round" stroke-linejoin="round"/>
<path d="M59.0664 27.6971H70.3516" stroke="#1C5368" stroke-width="2" stroke-linecap="round" stroke-linejoin="round"/>
<path d="M52.7549 41.7219H70.3515" stroke="#1C5368" stroke-width="2" stroke-linecap="round" stroke-linejoin="round"/>
<path d="M52.457 45.6505H70.3509" stroke="#1C5368" stroke-width="2" stroke-linecap="round" stroke-linejoin="round"/>
<path d="M51.1836 50.0447H70.3507" stroke="#1C5368" stroke-width="2" stroke-linecap="round" stroke-linejoin="round"/>
<path d="M49.1182 53.7998H60.77" stroke="#1C5368" stroke-width="2" stroke-linecap="round" stroke-linejoin="round"/>
<path d="M29.2383 67.3887H49.1187" stroke="#1C5368" stroke-width="2" stroke-linecap="round" stroke-linejoin="round"/>
<path d="M29.2383 71.5748H49.1187" stroke="#1C5368" stroke-width="2" stroke-linecap="round" stroke-linejoin="round"/>
<path d="M29.2383 83.3257H45.0416" stroke="#1C5368" stroke-width="2" stroke-linecap="round" stroke-linejoin="round"/>
<path d="M59.0664 82.8352H69.7621" stroke="#1C5368" stroke-width="2" stroke-linecap="round" stroke-linejoin="round"/>
<path d="M47.4984 37.7984H24.71V33.6965H45.6109C46.4355 34.9652 47.0713 36.3469 47.4984 37.7984Z" fill="#1C5368" stroke="#1C5368" stroke-width="2" stroke-linecap="round" stroke-linejoin="round"/>
<path d="M48.1224 42.4452C48.1061 43.4325 47.9966 44.4161 47.7954 45.3829C47.6671 45.9935 47.5017 46.5957 47.3 47.1862H24.7246V42.4452H48.1224Z" fill="#1C5368" stroke="#1C5368" stroke-width="2" stroke-linecap="round" stroke-linejoin="round"/>
<path d="M45.041 51.5408C43.7253 53.3179 42.0489 54.7968 40.1217 55.8806H24.7246V51.5359L45.041 51.5408Z" fill="#1C5368" stroke="#1C5368" stroke-width="2" stroke-linecap="round" stroke-linejoin="round"/>
</svg>
